<mxfile host="app.diagrams.net" modified="2024-05-07T12:59:35.794Z" agent="Mozilla/5.0 (Macintosh; Intel Mac OS X 10_15_7) AppleWebKit/537.36 (KHTML, like Gecko) Chrome/124.0.0.0 Safari/537.36" version="24.3.1" etag="wqp-2c3FvJIXbtt_LXBR" type="github">
  <diagram name="Page-1" id="PeZsUFqULGMpugAGK_gl">
    <mxGraphModel>
      <root>
        <mxCell id="0" />
        <mxCell id="1" parent="0" />
      </root>
    </mxGraphModel>
  </diagram>
</mxfile>
